<svg xmlns="http://www.w3.org/2000/svg" viewBox="0 0 50 50"><g id="Layer_2" data-name="Layer 2"><g id="Icon"><path d="M12.67,49.51c-16.91-12.68-16.88-33.23,0-45.89a2.82,2.82,0,0,1,2.77-.24l8.44,4a1.77,1.77,0,0,1,.94.9,1.24,1.24,0,0,1-.05,1.14L20.55,17.3a2,2,0,0,1-.91.81,2.82,2.82,0,0,1-1.39.23L11,17.8a19.88,19.88,0,0,0,0,17.53l7.26-.55a2.94,2.94,0,0,1,1.39.24,1.91,1.91,0,0,1,.91.81l4.22,7.91a1.26,1.26,0,0,1,.05,1.15,1.84,1.84,0,0,1-.94.9l-8.44,4A2.79,2.79,0,0,1,14,50,2.57,2.57,0,0,1,12.67,49.51ZM32.18,9.32a5,5,0,0,1,0,6.36,1.91,1.91,0,0,1-2.44.25L29,15.37A1,1,0,0,1,28.67,14a2.46,2.46,0,0,0,0-2.92A1,1,0,0,1,29,9.63l.78-.56A1.91,1.91,0,0,1,32.18,9.32Zm12-8.9c7.83,7,7.82,17.17,0,24.16a2,2,0,0,1-2.29.09l-.75-.54a1,1,0,0,1-.12-1.6c6.47-5.81,6.46-14.25,0-20.06a1,1,0,0,1,.12-1.6l.75-.54A2,2,0,0,1,44.13.42Zm-6,4.39c4.7,4.52,4.7,10.85,0,15.38a1.93,1.93,0,0,1-2.32.13l-.76-.54a1,1,0,0,1-.17-1.56,7.6,7.6,0,0,0,0-11.44,1,1,0,0,1,.17-1.56l.76-.54A1.93,1.93,0,0,1,38.14,4.81Z"/></g></g></svg>