<svg xmlns="http://www.w3.org/2000/svg" viewBox="0 0 50 50"><g id="Layer_2" data-name="Layer 2"><g id="Icon"><path d="M48.21,42.86H1.79a1.82,1.82,0,0,0-1.27.52A1.81,1.81,0,0,0,0,44.64v3.57a1.82,1.82,0,0,0,.52,1.27A1.82,1.82,0,0,0,1.79,50H48.21A1.78,1.78,0,0,0,50,48.21V44.64a1.78,1.78,0,0,0-1.79-1.78ZM44,29.05l-19-.48H6.8A1.78,1.78,0,0,0,5,30.36v3.57a1.8,1.8,0,0,0,.52,1.26,1.77,1.77,0,0,0,1.26.52L44,36.19a1.79,1.79,0,0,0,1.79-1.79V30.83a1.8,1.8,0,0,0-.52-1.26A1.78,1.78,0,0,0,44,29.05Zm4.25-14.76H1.79a1.78,1.78,0,0,0-1.27.52A1.8,1.8,0,0,0,0,16.07v3.57a1.82,1.82,0,0,0,.52,1.27,1.82,1.82,0,0,0,1.27.52H48.21A1.78,1.78,0,0,0,50,19.64V16.07a1.8,1.8,0,0,0-.52-1.26A1.78,1.78,0,0,0,48.21,14.29ZM48.21,0H1.79A1.82,1.82,0,0,0,.52.52,1.82,1.82,0,0,0,0,1.79V5.36A1.81,1.81,0,0,0,.52,6.62a1.82,1.82,0,0,0,1.27.52H48.21A1.78,1.78,0,0,0,50,5.36V1.79A1.82,1.82,0,0,0,49.48.52,1.82,1.82,0,0,0,48.21,0Z"/></g></g></svg>