<svg xmlns="http://www.w3.org/2000/svg" viewBox="0 0 50 50"><g id="Layer_2" data-name="Layer 2"><g id="Icon"><path d="M44.64,25H17V14.93c0-3.87,3.54-7.08,8-7.12S33,11,33,14.84v1.57a2.51,2.51,0,0,0,2.67,2.34h3.58A2.51,2.51,0,0,0,42,16.41V14.84C42,6.64,34.32,0,24.94,0S8,6.79,8,15V25H5.36C2.4,25,0,27.1,0,29.69V45.31C0,47.9,2.4,50,5.36,50H44.64c3,0,5.36-2.1,5.36-4.69V29.69C50,27.1,47.6,25,44.64,25ZM29.46,39.84A4.21,4.21,0,0,1,25,43.75a4.21,4.21,0,0,1-4.46-3.91V35.16A4.21,4.21,0,0,1,25,31.25a4.21,4.21,0,0,1,4.46,3.91Z"/></g></g></svg>