<svg xmlns="http://www.w3.org/2000/svg" viewBox="0 0 50 50"><g id="Layer_2" data-name="Layer 2"><g id="Icon"><path d="M48.75,20.31h-5V14.06A1.43,1.43,0,0,0,42.5,12.5H40a1.43,1.43,0,0,0-1.25,1.56v6.25h-5a1.44,1.44,0,0,0-1.25,1.57V25a1.43,1.43,0,0,0,1.25,1.56h5v6.25A1.44,1.44,0,0,0,40,34.38h2.5a1.44,1.44,0,0,0,1.25-1.57V26.56h5A1.43,1.43,0,0,0,50,25V21.88A1.44,1.44,0,0,0,48.75,20.31ZM17.5,25c5.52,0,10-5.6,10-12.5S23,0,17.5,0s-10,5.6-10,12.5S12,25,17.5,25Zm7,3.12H23.2a11.13,11.13,0,0,1-11.4,0H10.5C4.7,28.12,0,34,0,41.25v4.06C0,47.9,1.68,50,3.75,50h27.5C33.32,50,35,47.9,35,45.31V41.25C35,34,30.3,28.12,24.5,28.12Z"/></g></g></svg>